# Blender 4.4.3
# www.blender.org
mtllib Information.mtl
o Circle
v 0.000000 0.400000 0.000000
v -0.078036 0.392314 0.000000
v -0.153073 0.369552 0.000000
v -0.222228 0.332588 0.000000
v -0.282843 0.282843 0.000000
v -0.332588 0.222228 0.000000
v -0.369552 0.153073 0.000000
v -0.392314 0.078036 0.000000
v -0.400000 0.000000 0.000000
v -0.392314 -0.078036 -0.000000
v -0.369552 -0.153073 -0.000000
v -0.332588 -0.222228 -0.000000
v -0.282843 -0.282843 -0.000000
v -0.222228 -0.332588 -0.000000
v -0.153073 -0.369552 -0.000000
v -0.078036 -0.392314 -0.000000
v 0.000000 -0.400000 -0.000000
v 0.078036 -0.392314 -0.000000
v 0.153073 -0.369552 -0.000000
v 0.222228 -0.332588 -0.000000
v 0.282843 -0.282843 -0.000000
v 0.332588 -0.222228 -0.000000
v 0.369552 -0.153073 -0.000000
v 0.392314 -0.078036 -0.000000
v 0.400000 0.000000 0.000000
v 0.392314 0.078036 0.000000
v 0.369552 0.153073 0.000000
v 0.332588 0.222228 0.000000
v 0.282843 0.282843 0.000000
v 0.222228 0.332588 0.000000
v 0.153073 0.369552 0.000000
v 0.078036 0.392314 0.000000
v -0.000000 0.360000 0.000000
v -0.070233 0.353083 0.000000
v -0.137766 0.332597 0.000000
v -0.200005 0.299329 0.000000
v -0.254558 0.254559 0.000000
v -0.299329 0.200005 0.000000
v -0.332597 0.137766 0.000000
v -0.353083 0.070233 0.000000
v -0.360000 0.000000 0.000000
v -0.353083 -0.070233 -0.000000
v -0.332597 -0.137766 -0.000000
v -0.299329 -0.200005 -0.000000
v -0.254558 -0.254558 -0.000000
v -0.200005 -0.299329 -0.000000
v -0.137766 -0.332597 -0.000000
v -0.070233 -0.353083 -0.000000
v -0.000000 -0.360000 -0.000000
v 0.070233 -0.353083 -0.000000
v 0.137766 -0.332597 -0.000000
v 0.200005 -0.299329 -0.000000
v 0.254558 -0.254558 -0.000000
v 0.299329 -0.200005 -0.000000
v 0.332597 -0.137766 -0.000000
v 0.353083 -0.070233 -0.000000
v 0.360000 0.000000 0.000000
v 0.353083 0.070233 0.000000
v 0.332597 0.137766 0.000000
v 0.299329 0.200005 0.000000
v 0.254558 0.254559 0.000000
v 0.200005 0.299329 0.000000
v 0.137766 0.332597 0.000000
v 0.070233 0.353083 0.000000
v 0.048795 0.225512 0.000000
v 0.042083 0.250012 0.000000
v 0.024535 0.267560 0.000000
v 0.000035 0.274272 0.000000
v -0.024464 0.267560 0.000000
v -0.042012 0.250012 0.000000
v -0.048725 0.225512 0.000000
v -0.042012 0.201013 0.000000
v -0.024464 0.183465 0.000000
v 0.000035 0.176752 0.000000
v 0.024535 0.183465 0.000000
v 0.042083 0.201013 0.000000
v 0.000000 0.400000 0.010603
v -0.000000 0.390558 0.020000
v -0.076194 0.383053 0.020000
v -0.078036 0.392314 0.010603
v -0.149460 0.360828 0.020000
v -0.153073 0.369552 0.010603
v -0.216982 0.324737 0.020000
v -0.222228 0.332588 0.010603
v -0.276166 0.276166 0.020000
v -0.282843 0.282843 0.010603
v -0.324737 0.216982 0.020000
v -0.332588 0.222228 0.010603
v -0.360828 0.149460 0.020000
v -0.369552 0.153073 0.010603
v -0.383053 0.076194 0.020000
v -0.392314 0.078036 0.010603
v -0.390558 -0.000000 0.020000
v -0.400000 -0.000000 0.010603
v -0.383053 -0.076194 0.020000
v -0.392314 -0.078036 0.010603
v -0.360828 -0.149460 0.020000
v -0.369552 -0.153073 0.010603
v -0.324737 -0.216982 0.020000
v -0.332588 -0.222228 0.010603
v -0.276166 -0.276166 0.020000
v -0.282843 -0.282843 0.010603
v -0.216982 -0.324737 0.020000
v -0.222228 -0.332588 0.010603
v -0.149460 -0.360828 0.020000
v -0.153073 -0.369552 0.010603
v -0.076194 -0.383053 0.020000
v -0.078036 -0.392314 0.010603
v -0.000000 -0.390558 0.020000
v 0.000000 -0.400000 0.010603
v 0.076194 -0.383053 0.020000
v 0.078036 -0.392314 0.010603
v 0.149460 -0.360828 0.020000
v 0.153073 -0.369552 0.010603
v 0.216982 -0.324737 0.020000
v 0.222228 -0.332588 0.010603
v 0.276166 -0.276166 0.020000
v 0.282843 -0.282843 0.010603
v 0.324737 -0.216982 0.020000
v 0.332588 -0.222228 0.010603
v 0.360828 -0.149460 0.020000
v 0.369552 -0.153073 0.010603
v 0.383053 -0.076194 0.020000
v 0.392314 -0.078036 0.010603
v 0.390558 -0.000000 0.020000
v 0.400000 -0.000000 0.010603
v 0.383053 0.076194 0.020000
v 0.392314 0.078036 0.010603
v 0.360828 0.149460 0.020000
v 0.369552 0.153073 0.010603
v 0.324737 0.216982 0.020000
v 0.332588 0.222228 0.010603
v 0.276166 0.276166 0.020000
v 0.282843 0.282843 0.010603
v 0.216982 0.324737 0.020000
v 0.222228 0.332588 0.010603
v 0.149460 0.360828 0.020000
v 0.153073 0.369552 0.010603
v 0.076194 0.383053 0.020000
v 0.078036 0.392314 0.010603
v -0.000000 0.369442 0.020000
v -0.000000 0.360000 0.010603
v -0.070233 0.353083 0.010603
v -0.072075 0.362343 0.020000
v -0.137766 0.332597 0.010603
v -0.141379 0.341320 0.020000
v -0.200005 0.299329 0.010603
v -0.205251 0.307180 0.020000
v -0.254558 0.254558 0.010603
v -0.261235 0.261235 0.020000
v -0.299329 0.200005 0.010603
v -0.307180 0.205251 0.020000
v -0.332597 0.137766 0.010603
v -0.341320 0.141379 0.020000
v -0.353083 0.070233 0.010603
v -0.362343 0.072075 0.020000
v -0.360000 0.000000 0.010603
v -0.369442 -0.000000 0.020000
v -0.353083 -0.070233 0.010603
v -0.362343 -0.072075 0.020000
v -0.332597 -0.137766 0.010603
v -0.341320 -0.141379 0.020000
v -0.299329 -0.200005 0.010603
v -0.307180 -0.205251 0.020000
v -0.254558 -0.254558 0.010603
v -0.261235 -0.261235 0.020000
v -0.200005 -0.299329 0.010603
v -0.205251 -0.307180 0.020000
v -0.137766 -0.332597 0.010603
v -0.141379 -0.341320 0.020000
v -0.070233 -0.353083 0.010603
v -0.072075 -0.362343 0.020000
v -0.000000 -0.360000 0.010603
v -0.000000 -0.369442 0.020000
v 0.070233 -0.353083 0.010603
v 0.072075 -0.362343 0.020000
v 0.137766 -0.332597 0.010603
v 0.141379 -0.341320 0.020000
v 0.200005 -0.299329 0.010603
v 0.205251 -0.307180 0.020000
v 0.254558 -0.254558 0.010603
v 0.261235 -0.261235 0.020000
v 0.299329 -0.200005 0.010603
v 0.307180 -0.205251 0.020000
v 0.332597 -0.137766 0.010603
v 0.341320 -0.141379 0.020000
v 0.353083 -0.070233 0.010603
v 0.362343 -0.072075 0.020000
v 0.360000 0.000000 0.010603
v 0.369442 -0.000000 0.020000
v 0.353083 0.070233 0.010603
v 0.362343 0.072075 0.020000
v 0.332597 0.137766 0.010603
v 0.341320 0.141379 0.020000
v 0.299329 0.200005 0.010603
v 0.307180 0.205251 0.020000
v 0.254558 0.254558 0.010603
v 0.261235 0.261235 0.020000
v 0.200005 0.299329 0.010603
v 0.205251 0.307180 0.020000
v 0.137766 0.332597 0.010603
v 0.141379 0.341320 0.020000
v 0.070233 0.353083 0.010603
v 0.072075 0.362343 0.020000
v 0.039052 0.225512 0.020000
v 0.048795 0.225512 0.010603
v 0.033678 0.245128 0.020000
v 0.042083 0.250012 0.010603
v 0.019651 0.259155 0.020000
v 0.024535 0.267560 0.010603
v 0.000035 0.274272 0.010603
v 0.000035 0.264529 0.020000
v -0.024464 0.267560 0.010603
v -0.019580 0.259155 0.020000
v -0.042012 0.250012 0.010603
v -0.033607 0.245127 0.020000
v -0.048725 0.225512 0.010603
v -0.038982 0.225512 0.020000
v -0.042012 0.201013 0.010603
v -0.033607 0.205897 0.020000
v -0.024464 0.183465 0.010603
v -0.019580 0.191870 0.020000
v 0.000035 0.176752 0.010603
v 0.000035 0.186495 0.020000
v 0.019651 0.191870 0.020000
v 0.024535 0.183465 0.010603
v 0.033678 0.205897 0.020000
v 0.042083 0.201013 0.010603
v 0.040515 0.077499 0.000000
v 0.017622 0.100392 0.000000
v 0.033810 0.093687 0.000000
v -0.018472 0.100392 0.000000
v -0.041365 0.077499 0.000000
v -0.034659 0.093687 0.000000
v -0.041365 -0.289795 -0.000000
v -0.018472 -0.312688 -0.000000
v -0.034659 -0.305983 -0.000000
v 0.017622 -0.312688 -0.000000
v 0.040515 -0.289795 -0.000000
v 0.033810 -0.305983 -0.000000
v 0.017550 0.100392 0.010603
v 0.040515 0.077427 0.010603
v 0.033789 0.093666 0.010603
v 0.008044 0.090996 0.020000
v 0.031119 0.067921 0.020000
v 0.024360 0.084237 0.020000
v -0.041365 0.077427 0.010603
v -0.018399 0.100392 0.010603
v -0.034638 0.093666 0.010603
v -0.031968 0.067921 0.020000
v -0.008893 0.090996 0.020000
v -0.025209 0.084237 0.020000
v -0.008893 -0.303291 0.020000
v -0.031968 -0.280216 0.020000
v -0.025209 -0.296533 0.020000
v -0.018399 -0.312688 0.010603
v -0.041365 -0.289722 0.010603
v -0.034638 -0.305961 0.010603
v 0.031119 -0.280216 0.020000
v 0.008044 -0.303291 0.020000
v 0.024360 -0.296533 0.020000
v 0.040515 -0.289722 0.010603
v 0.017550 -0.312688 0.010603
v 0.033789 -0.305961 0.010603
v 0.000000 0.400000 -0.010603
v -0.000000 0.390558 -0.020000
v -0.076194 0.383053 -0.020000
v -0.078036 0.392314 -0.010603
v -0.149460 0.360828 -0.020000
v -0.153073 0.369552 -0.010603
v -0.216982 0.324737 -0.020000
v -0.222228 0.332588 -0.010603
v -0.276166 0.276166 -0.020000
v -0.282843 0.282843 -0.010603
v -0.324737 0.216982 -0.020000
v -0.332588 0.222228 -0.010603
v -0.360828 0.149460 -0.020000
v -0.369552 0.153073 -0.010603
v -0.383053 0.076194 -0.020000
v -0.392314 0.078036 -0.010603
v -0.390558 0.000000 -0.020000
v -0.400000 0.000000 -0.010603
v -0.383053 -0.076194 -0.020000
v -0.392314 -0.078036 -0.010603
v -0.360828 -0.149460 -0.020000
v -0.369552 -0.153073 -0.010603
v -0.324737 -0.216982 -0.020000
v -0.332588 -0.222228 -0.010603
v -0.276166 -0.276166 -0.020000
v -0.282843 -0.282843 -0.010603
v -0.216982 -0.324737 -0.020000
v -0.222228 -0.332588 -0.010603
v -0.149460 -0.360828 -0.020000
v -0.153073 -0.369552 -0.010603
v -0.076194 -0.383053 -0.020000
v -0.078036 -0.392314 -0.010603
v -0.000000 -0.390558 -0.020000
v 0.000000 -0.400000 -0.010603
v 0.076194 -0.383053 -0.020000
v 0.078036 -0.392314 -0.010603
v 0.149460 -0.360828 -0.020000
v 0.153073 -0.369552 -0.010603
v 0.216982 -0.324737 -0.020000
v 0.222228 -0.332588 -0.010603
v 0.276166 -0.276166 -0.020000
v 0.282843 -0.282843 -0.010603
v 0.324737 -0.216982 -0.020000
v 0.332588 -0.222228 -0.010603
v 0.360828 -0.149460 -0.020000
v 0.369552 -0.153073 -0.010603
v 0.383053 -0.076194 -0.020000
v 0.392314 -0.078036 -0.010603
v 0.390558 0.000000 -0.020000
v 0.400000 0.000000 -0.010603
v 0.383053 0.076194 -0.020000
v 0.392314 0.078036 -0.010603
v 0.360828 0.149460 -0.020000
v 0.369552 0.153073 -0.010603
v 0.324737 0.216982 -0.020000
v 0.332588 0.222228 -0.010603
v 0.276166 0.276166 -0.020000
v 0.282843 0.282843 -0.010603
v 0.216982 0.324737 -0.020000
v 0.222228 0.332588 -0.010603
v 0.149460 0.360828 -0.020000
v 0.153073 0.369552 -0.010603
v 0.076194 0.383053 -0.020000
v 0.078036 0.392314 -0.010603
v -0.000000 0.369442 -0.020000
v -0.000000 0.360000 -0.010603
v -0.070233 0.353083 -0.010603
v -0.072075 0.362343 -0.020000
v -0.137766 0.332597 -0.010603
v -0.141379 0.341320 -0.020000
v -0.200005 0.299329 -0.010603
v -0.205251 0.307180 -0.020000
v -0.254558 0.254558 -0.010603
v -0.261235 0.261235 -0.020000
v -0.299329 0.200005 -0.010603
v -0.307180 0.205251 -0.020000
v -0.332597 0.137766 -0.010603
v -0.341320 0.141379 -0.020000
v -0.353083 0.070233 -0.010603
v -0.362343 0.072075 -0.020000
v -0.360000 0.000000 -0.010603
v -0.369442 0.000000 -0.020000
v -0.353083 -0.070233 -0.010603
v -0.362343 -0.072075 -0.020000
v -0.332597 -0.137766 -0.010603
v -0.341320 -0.141379 -0.020000
v -0.299329 -0.200005 -0.010603
v -0.307180 -0.205251 -0.020000
v -0.254558 -0.254558 -0.010603
v -0.261235 -0.261235 -0.020000
v -0.200005 -0.299329 -0.010603
v -0.205251 -0.307180 -0.020000
v -0.137766 -0.332597 -0.010603
v -0.141379 -0.341320 -0.020000
v -0.070233 -0.353083 -0.010603
v -0.072075 -0.362343 -0.020000
v -0.000000 -0.360000 -0.010603
v -0.000000 -0.369442 -0.020000
v 0.070233 -0.353083 -0.010603
v 0.072075 -0.362343 -0.020000
v 0.137766 -0.332597 -0.010603
v 0.141379 -0.341320 -0.020000
v 0.200005 -0.299329 -0.010603
v 0.205251 -0.307180 -0.020000
v 0.254558 -0.254558 -0.010603
v 0.261235 -0.261235 -0.020000
v 0.299329 -0.200005 -0.010603
v 0.307180 -0.205251 -0.020000
v 0.332597 -0.137766 -0.010603
v 0.341320 -0.141379 -0.020000
v 0.353083 -0.070233 -0.010603
v 0.362343 -0.072075 -0.020000
v 0.360000 0.000000 -0.010603
v 0.369442 0.000000 -0.020000
v 0.353083 0.070233 -0.010603
v 0.362343 0.072075 -0.020000
v 0.332597 0.137766 -0.010603
v 0.341320 0.141379 -0.020000
v 0.299329 0.200005 -0.010603
v 0.307180 0.205251 -0.020000
v 0.254558 0.254558 -0.010603
v 0.261235 0.261235 -0.020000
v 0.200005 0.299329 -0.010603
v 0.205251 0.307180 -0.020000
v 0.137766 0.332597 -0.010603
v 0.141379 0.341320 -0.020000
v 0.070233 0.353083 -0.010603
v 0.072075 0.362343 -0.020000
v 0.039052 0.225512 -0.020000
v 0.048795 0.225512 -0.010603
v 0.033678 0.245128 -0.020000
v 0.042083 0.250012 -0.010603
v 0.019651 0.259155 -0.020000
v 0.024535 0.267560 -0.010603
v 0.000035 0.274272 -0.010603
v 0.000035 0.264529 -0.020000
v -0.024464 0.267560 -0.010603
v -0.019580 0.259155 -0.020000
v -0.042012 0.250012 -0.010603
v -0.033607 0.245127 -0.020000
v -0.048725 0.225512 -0.010603
v -0.038982 0.225512 -0.020000
v -0.042012 0.201013 -0.010603
v -0.033607 0.205897 -0.020000
v -0.024464 0.183465 -0.010603
v -0.019580 0.191870 -0.020000
v 0.000035 0.176752 -0.010603
v 0.000035 0.186495 -0.020000
v 0.019651 0.191870 -0.020000
v 0.024535 0.183465 -0.010603
v 0.033678 0.205897 -0.020000
v 0.042083 0.201013 -0.010603
v 0.017550 0.100392 -0.010603
v 0.040515 0.077427 -0.010603
v 0.033789 0.093666 -0.010603
v 0.008044 0.090996 -0.020000
v 0.031119 0.067921 -0.020000
v 0.024360 0.084237 -0.020000
v -0.041365 0.077427 -0.010603
v -0.018399 0.100392 -0.010603
v -0.034638 0.093666 -0.010603
v -0.031968 0.067921 -0.020000
v -0.008893 0.090996 -0.020000
v -0.025209 0.084237 -0.020000
v -0.008893 -0.303291 -0.020000
v -0.031968 -0.280216 -0.020000
v -0.025209 -0.296533 -0.020000
v -0.018399 -0.312688 -0.010603
v -0.041365 -0.289722 -0.010603
v -0.034638 -0.305961 -0.010603
v 0.031119 -0.280216 -0.020000
v 0.008044 -0.303291 -0.020000
v 0.024360 -0.296533 -0.020000
v 0.040515 -0.289722 -0.010603
v 0.017550 -0.312688 -0.010603
v 0.033789 -0.305961 -0.010603
vn -0.3827 0.9239 -0.0000
vn -0.5556 0.8315 -0.0000
vn 0.5556 0.8315 -0.0000
vn 0.3827 0.9239 -0.0000
vn -0.0000 -1.0000 -0.0000
vn 0.1951 -0.9808 -0.0000
vn -0.7071 0.7071 -0.0000
vn 0.1951 0.9808 -0.0000
vn 0.3827 -0.9239 -0.0000
vn -0.8315 0.5556 -0.0000
vn 0.5556 -0.8315 -0.0000
vn -0.9239 0.3827 -0.0000
vn -0.0000 -0.0000 1.0000
vn 0.7071 -0.7071 -0.0000
vn -0.9808 0.1951 -0.0000
vn 0.8315 -0.5556 -0.0000
vn -1.0000 -0.0000 -0.0000
vn 0.9239 -0.3827 -0.0000
vn -0.9808 -0.1951 -0.0000
vn 0.9808 -0.1951 -0.0000
vn -0.9239 -0.3827 -0.0000
vn 1.0000 -0.0000 -0.0000
vn -0.8315 -0.5556 -0.0000
vn 0.9808 0.1951 -0.0000
vn -0.7071 -0.7071 -0.0000
vn 0.9239 0.3827 -0.0000
vn -0.5556 -0.8315 -0.0000
vn 0.8315 0.5556 -0.0000
vn -0.3827 -0.9239 -0.0000
vn 0.7071 0.7071 -0.0000
vn -0.1951 -0.9808 -0.0000
vn -0.0000 1.0000 -0.0000
vn -0.1951 0.9808 -0.0000
vn 0.8646 0.5024 -0.0000
vn 0.9645 0.2643 -0.0000
vn 0.9645 -0.2643 -0.0000
vn 0.8646 -0.5024 -0.0000
vn -0.0000 -0.0000 -1.0000
vn 0.5024 0.8646 -0.0000
vn 0.9809 -0.1943 0.0013
vn 0.9806 0.1959 -0.0000
vn 0.9809 0.1943 0.0013
vn 0.9806 -0.1959 -0.0000
vn -0.5024 -0.8646 -0.0000
vn -0.8646 -0.5024 -0.0000
vn -0.5024 0.8646 -0.0000
vn -0.2643 0.9645 -0.0000
vn -0.6602 0.0850 0.7462
vn -0.6151 -0.1560 0.7729
vn -0.6602 -0.0850 0.7462
vn -0.6151 0.1560 0.7729
vn -0.8646 0.5024 -0.0000
vn -0.2643 -0.9645 -0.0000
vn 0.2642 0.9645 -0.0000
vn 0.6151 0.1560 0.7729
vn 0.6602 -0.0850 0.7462
vn 0.6151 -0.1560 0.7729
vn 0.6602 0.0850 0.7462
vn 0.5024 -0.8646 -0.0000
vn 0.2643 -0.9645 -0.0000
vn -0.9645 0.2643 -0.0000
vn -0.1943 -0.9809 0.0013
vn 0.1959 -0.9806 -0.0000
vn 0.1943 -0.9809 0.0013
vn -0.1959 -0.9806 -0.0000
vn -0.9645 -0.2643 -0.0000
vn -0.9809 0.1943 0.0013
vn -0.9806 -0.1959 -0.0000
vn -0.9809 -0.1943 0.0013
vn -0.9806 0.1959 -0.0000
vn -0.1376 0.6918 0.7088
vn -0.0000 0.7054 0.7088
vn -0.2699 0.6517 0.7088
vn -0.3919 0.5865 0.7088
vn -0.4988 0.4988 0.7088
vn -0.5865 0.3919 0.7088
vn -0.6517 0.2699 0.7088
vn -0.6918 0.1376 0.7088
vn -0.7054 -0.0000 0.7088
vn -0.6918 -0.1376 0.7088
vn -0.6517 -0.2699 0.7088
vn -0.5865 -0.3919 0.7088
vn -0.4988 -0.4988 0.7088
vn -0.3919 -0.5865 0.7088
vn -0.2699 -0.6517 0.7088
vn -0.1376 -0.6918 0.7088
vn -0.0000 -0.7054 0.7088
vn 0.1376 -0.6918 0.7088
vn 0.2699 -0.6517 0.7088
vn 0.3919 -0.5865 0.7088
vn 0.4988 -0.4988 0.7088
vn 0.5865 -0.3919 0.7088
vn 0.6517 -0.2699 0.7088
vn 0.6918 -0.1376 0.7088
vn 0.7054 -0.0000 0.7088
vn 0.6918 0.1376 0.7088
vn 0.6517 0.2699 0.7088
vn 0.5865 0.3919 0.7088
vn 0.4988 0.4988 0.7088
vn 0.3919 0.5865 0.7088
vn 0.2699 0.6517 0.7088
vn 0.1376 0.6918 0.7088
vn -0.0850 -0.6602 0.7462
vn 0.1560 -0.6151 0.7729
vn 0.0850 -0.6602 0.7462
vn -0.1560 -0.6151 0.7729
vn 0.0850 0.6602 0.7462
vn -0.1560 0.6151 0.7729
vn -0.0850 0.6602 0.7462
vn 0.1560 0.6151 0.7729
vn 0.3492 0.6009 0.7190
vn -0.0000 0.6942 0.7198
vn -0.3492 0.6009 0.7190
vn 0.6009 0.3492 0.7190
vn -0.6009 0.3492 0.7190
vn 0.6942 -0.0000 0.7198
vn -0.6942 -0.0000 0.7198
vn 0.6009 -0.3492 0.7190
vn -0.6009 -0.3492 0.7190
vn 0.3492 -0.6009 0.7190
vn -0.3492 -0.6009 0.7190
vn -0.0000 -0.6942 0.7198
vn -0.4073 0.4073 0.8174
vn -0.4073 -0.4073 0.8174
vn 0.4073 0.4073 0.8174
vn 0.4073 -0.4073 0.8174
vn 0.3827 -0.9239 0.0026
vn 0.9239 -0.3827 0.0026
vn 0.1943 0.9809 0.0013
vn 0.1959 0.9806 -0.0000
vn 0.3827 0.9239 0.0026
vn 0.9239 0.3827 0.0026
vn -0.9239 0.3827 0.0026
vn -0.3827 0.9239 0.0026
vn -0.1959 0.9806 -0.0000
vn -0.1943 0.9809 0.0013
vn -0.3827 -0.9239 0.0026
vn -0.9239 -0.3827 0.0026
vn 0.9809 -0.1943 -0.0013
vn 0.9809 0.1943 -0.0013
vn -0.6602 0.0850 -0.7462
vn -0.6602 -0.0850 -0.7462
vn -0.6151 -0.1560 -0.7729
vn -0.6151 0.1560 -0.7729
vn 0.6151 0.1560 -0.7729
vn 0.6151 -0.1560 -0.7729
vn 0.6602 -0.0850 -0.7462
vn 0.6602 0.0850 -0.7462
vn -0.1943 -0.9809 -0.0013
vn 0.1943 -0.9809 -0.0013
vn -0.9809 0.1943 -0.0013
vn -0.9809 -0.1943 -0.0013
vn -0.1376 0.6918 -0.7088
vn -0.0000 0.7054 -0.7088
vn -0.2699 0.6517 -0.7088
vn -0.3919 0.5865 -0.7088
vn -0.4988 0.4988 -0.7088
vn -0.5865 0.3919 -0.7088
vn -0.6517 0.2699 -0.7088
vn -0.6918 0.1376 -0.7088
vn -0.7054 -0.0000 -0.7088
vn -0.6918 -0.1376 -0.7088
vn -0.6517 -0.2699 -0.7088
vn -0.5865 -0.3919 -0.7088
vn -0.4988 -0.4988 -0.7088
vn -0.3919 -0.5865 -0.7088
vn -0.2699 -0.6517 -0.7088
vn -0.1376 -0.6918 -0.7088
vn -0.0000 -0.7054 -0.7088
vn 0.1376 -0.6918 -0.7088
vn 0.2699 -0.6517 -0.7088
vn 0.3919 -0.5865 -0.7088
vn 0.4988 -0.4988 -0.7088
vn 0.5865 -0.3919 -0.7088
vn 0.6517 -0.2699 -0.7088
vn 0.6918 -0.1376 -0.7088
vn 0.7054 -0.0000 -0.7088
vn 0.6918 0.1376 -0.7088
vn 0.6517 0.2699 -0.7088
vn 0.5865 0.3919 -0.7088
vn 0.4988 0.4988 -0.7088
vn 0.3919 0.5865 -0.7088
vn 0.2699 0.6517 -0.7088
vn 0.1376 0.6918 -0.7088
vn -0.0850 -0.6602 -0.7462
vn 0.0850 -0.6602 -0.7462
vn 0.1560 -0.6151 -0.7729
vn -0.1560 -0.6151 -0.7729
vn 0.0850 0.6602 -0.7462
vn -0.0850 0.6602 -0.7462
vn -0.1560 0.6151 -0.7729
vn 0.1560 0.6151 -0.7729
vn 0.3492 0.6009 -0.7190
vn -0.0000 0.6942 -0.7198
vn -0.3492 0.6009 -0.7190
vn 0.6009 0.3492 -0.7190
vn -0.6009 0.3492 -0.7190
vn 0.6942 -0.0000 -0.7198
vn -0.6942 -0.0000 -0.7198
vn 0.6009 -0.3492 -0.7190
vn -0.6009 -0.3492 -0.7190
vn 0.3492 -0.6009 -0.7190
vn -0.3492 -0.6009 -0.7190
vn -0.0000 -0.6942 -0.7198
vn -0.4073 0.4073 -0.8174
vn -0.4073 -0.4073 -0.8174
vn 0.4073 0.4073 -0.8174
vn 0.4073 -0.4073 -0.8174
vn 0.3827 -0.9239 -0.0026
vn 0.9239 -0.3827 -0.0026
vn 0.1943 0.9809 -0.0013
vn 0.3827 0.9239 -0.0026
vn 0.9239 0.3827 -0.0026
vn -0.9239 0.3827 -0.0026
vn -0.3827 0.9239 -0.0026
vn -0.1943 0.9809 -0.0013
vn -0.3827 -0.9239 -0.0026
vn -0.9239 -0.3827 -0.0026
vt 0.000000 0.000000
vt 0.996730 0.000000
vt 0.944436 0.000000
vt 0.944447 0.000000
vt 0.996740 0.000000
vt 0.960574 0.000000
vt 0.979302 0.000000
vt 0.980603 0.000000
vt 0.961874 0.000000
vt 0.993624 0.000000
vt 0.947552 0.000000
vt 0.985892 0.000000
vt 0.994518 0.000000
vt 0.994500 0.000000
vt 0.985874 0.000000
vt 0.979305 0.000000
vt 0.961871 0.000000
vt 0.987324 0.000000
vt 0.991284 0.000000
vt 0.953852 0.000000
vt 0.945273 0.000000
vt 0.949893 0.000000
vt 0.958900 0.000000
vt 0.955285 0.000000
vt 0.946676 0.000000
vt 0.960417 0.000000
vt 0.980759 0.000000
vt 0.982277 0.000000
vt 0.941969 0.000000
vt 0.999207 0.000000
vt 0.995904 0.000000
vt 1.000000 0.000000
vt 0.941176 0.000000
vt 0.946659 0.000000
vt 0.960784 0.000000
vt 0.955302 0.000000
vt 0.980392 0.000000
s 1
usemtl Material.001
f 82/1/1 4/1/2 84/1/2
f 82/1/1 3/1/1 4/1/2
f 136/1/3 31/1/4 138/1/4
f 136/1/3 30/1/3 31/1/4
f 110/1/5 18/1/6 112/1/6
f 110/1/5 17/1/5 18/1/6
f 84/1/2 5/1/7 86/1/7
f 84/1/2 4/1/2 5/1/7
f 138/1/4 32/1/8 140/1/8
f 138/1/4 31/1/4 32/1/8
f 112/1/6 19/1/9 114/1/9
f 112/1/6 18/1/6 19/1/9
f 86/1/7 6/1/10 88/1/10
f 86/1/7 5/1/7 6/1/10
f 143/1/6 33/1/5 142/1/5
f 143/1/6 34/1/6 33/1/5
f 114/1/9 20/1/11 116/1/11
f 114/1/9 19/1/9 20/1/11
f 88/1/10 7/1/12 90/1/12
f 88/1/10 6/1/10 7/1/12
f 79/1/13 141/1/13 78/1/13
f 79/1/13 144/1/13 141/1/13
f 116/1/11 21/1/14 118/1/14
f 116/1/11 20/1/11 21/1/14
f 90/1/12 8/1/15 92/1/15
f 90/1/12 7/1/12 8/1/15
f 118/1/14 22/1/16 120/1/16
f 118/1/14 21/1/14 22/1/16
f 92/1/15 9/1/17 94/1/17
f 92/1/15 8/1/15 9/1/17
f 120/1/16 23/1/18 122/1/18
f 120/1/16 22/1/16 23/1/18
f 94/1/17 10/1/19 96/1/19
f 94/1/17 9/1/17 10/1/19
f 122/1/18 24/1/20 124/1/20
f 122/1/18 23/1/18 24/1/20
f 96/1/19 11/1/21 98/1/21
f 96/1/19 10/1/19 11/1/21
f 124/1/20 25/1/22 126/1/22
f 124/1/20 24/1/20 25/1/22
f 98/1/21 12/1/23 100/1/23
f 98/1/21 11/1/21 12/1/23
f 126/1/22 26/1/24 128/1/24
f 126/1/22 25/1/22 26/1/24
f 100/1/23 13/1/25 102/1/25
f 100/1/23 12/1/23 13/1/25
f 128/1/24 27/1/26 130/1/26
f 128/1/24 26/1/24 27/1/26
f 102/1/25 14/1/27 104/1/27
f 102/1/25 13/1/25 14/1/27
f 130/1/26 28/1/28 132/1/28
f 130/1/26 27/1/26 28/1/28
f 104/1/27 15/1/29 106/1/29
f 104/1/27 14/1/27 15/1/29
f 132/1/28 29/1/30 134/1/30
f 132/1/28 28/1/28 29/1/30
f 106/1/29 16/1/31 108/1/31
f 106/1/29 15/1/29 16/1/31
f 140/1/8 1/1/32 77/1/32
f 140/1/8 32/1/8 1/1/32
f 134/1/30 30/1/3 136/1/3
f 134/1/30 29/1/30 30/1/3
f 108/1/31 17/1/5 110/1/5
f 108/1/31 16/1/31 17/1/5
f 81/1/13 144/1/13 79/1/13
f 81/1/13 146/1/13 144/1/13
f 135/1/13 198/1/13 133/1/13
f 135/1/13 200/1/13 198/1/13
f 109/1/13 172/1/13 107/1/13
f 109/1/13 174/1/13 172/1/13
f 83/1/13 146/1/13 81/1/13
f 83/1/13 148/1/13 146/1/13
f 137/1/13 200/1/13 135/1/13
f 137/1/13 202/1/13 200/1/13
f 111/1/13 174/1/13 109/1/13
f 111/1/13 176/1/13 174/1/13
f 85/1/13 148/1/13 83/1/13
f 85/1/13 150/1/13 148/1/13
f 139/1/13 202/1/13 137/1/13
f 139/1/13 204/1/13 202/1/13
f 113/1/13 176/1/13 111/1/13
f 113/1/13 178/1/13 176/1/13
f 87/1/13 150/1/13 85/1/13
f 87/1/13 152/1/13 150/1/13
f 80/1/33 3/1/1 82/1/1
f 80/1/33 2/1/33 3/1/1
f 115/1/13 178/1/13 113/1/13
f 115/1/13 180/1/13 178/1/13
f 89/1/13 152/1/13 87/1/13
f 89/1/13 154/1/13 152/1/13
f 117/1/13 180/1/13 115/1/13
f 117/1/13 182/1/13 180/1/13
f 91/1/13 154/1/13 89/1/13
f 91/1/13 156/1/13 154/1/13
f 119/1/13 182/1/13 117/1/13
f 119/1/13 184/1/13 182/1/13
f 93/1/13 156/1/13 91/1/13
f 93/1/13 158/1/13 156/1/13
f 121/1/13 184/1/13 119/1/13
f 121/1/13 186/1/13 184/1/13
f 95/1/13 158/1/13 93/1/13
f 95/1/13 160/1/13 158/1/13
f 123/1/13 186/1/13 121/1/13
f 123/1/13 188/1/13 186/1/13
f 97/1/13 160/1/13 95/1/13
f 97/1/13 162/1/13 160/1/13
f 125/1/13 188/1/13 123/1/13
f 125/1/13 190/1/13 188/1/13
f 99/1/13 162/1/13 97/1/13
f 99/1/13 164/1/13 162/1/13
f 127/1/13 190/1/13 125/1/13
f 127/1/13 192/1/13 190/1/13
f 101/1/13 164/1/13 99/1/13
f 101/1/13 166/1/13 164/1/13
f 129/1/13 192/1/13 127/1/13
f 129/1/13 194/1/13 192/1/13
f 103/1/13 166/1/13 101/1/13
f 103/1/13 168/1/13 166/1/13
f 131/1/13 194/1/13 129/1/13
f 131/1/13 196/1/13 194/1/13
f 105/1/13 168/1/13 103/1/13
f 105/1/13 170/1/13 168/1/13
f 78/1/13 204/1/13 139/1/13
f 78/1/13 141/1/13 204/1/13
f 133/1/13 196/1/13 131/1/13
f 133/1/13 198/1/13 196/1/13
f 107/1/13 170/1/13 105/1/13
f 107/1/13 172/1/13 170/1/13
f 191/1/19 57/1/17 189/1/17
f 191/1/19 58/1/19 57/1/17
f 165/1/30 44/1/28 163/1/28
f 165/1/30 45/1/30 44/1/28
f 193/1/21 58/1/19 191/1/19
f 193/1/21 59/1/21 58/1/19
f 167/1/3 45/1/30 165/1/30
f 167/1/3 46/1/3 45/1/30
f 195/1/23 59/1/21 193/1/21
f 195/1/23 60/1/23 59/1/21
f 169/1/4 46/1/3 167/1/3
f 169/1/4 47/1/4 46/1/3
f 197/1/25 60/1/23 195/1/23
f 197/1/25 61/1/25 60/1/23
f 171/1/8 47/1/4 169/1/4
f 171/1/8 48/1/8 47/1/4
f 142/1/5 64/1/31 203/1/31
f 142/1/5 33/1/5 64/1/31
f 199/1/27 61/1/25 197/1/25
f 199/1/27 62/1/27 61/1/25
f 173/1/32 48/1/8 171/1/8
f 173/1/32 49/1/32 48/1/8
f 147/1/11 35/1/9 145/1/9
f 147/1/11 36/1/11 35/1/9
f 201/1/29 62/1/27 199/1/27
f 201/1/29 63/1/29 62/1/27
f 175/1/33 49/1/32 173/1/32
f 175/1/33 50/1/33 49/1/32
f 149/1/14 36/1/11 147/1/11
f 149/1/14 37/1/14 36/1/11
f 203/1/31 63/1/29 201/1/29
f 203/1/31 64/1/31 63/1/29
f 177/1/1 50/1/33 175/1/33
f 177/1/1 51/1/1 50/1/33
f 151/1/16 37/1/14 149/1/14
f 151/1/16 38/1/16 37/1/14
f 208/1/34 206/1/35 65/1/35
f 208/1/34 65/1/35 66/1/34
f 179/1/2 51/1/1 177/1/1
f 179/1/2 52/1/2 51/1/1
f 153/1/18 38/1/16 151/1/16
f 153/1/18 39/1/18 38/1/16
f 145/1/9 34/1/6 143/1/6
f 145/1/9 35/1/9 34/1/6
f 181/1/7 52/1/2 179/1/2
f 181/1/7 53/1/7 52/1/2
f 155/1/20 39/1/18 153/1/18
f 155/1/20 40/1/20 39/1/18
f 183/1/10 53/1/7 181/1/7
f 183/1/10 54/1/10 53/1/7
f 157/1/22 40/1/20 155/1/20
f 157/1/22 41/1/22 40/1/20
f 185/1/12 54/1/10 183/1/10
f 185/1/12 55/1/12 54/1/10
f 159/1/24 41/1/22 157/1/22
f 159/1/24 42/1/24 41/1/22
f 187/1/15 55/1/12 185/1/12
f 187/1/15 56/1/15 55/1/12
f 161/1/26 42/1/24 159/1/24
f 161/1/26 43/1/26 42/1/24
f 189/1/17 56/1/15 187/1/15
f 189/1/17 57/1/17 56/1/15
f 163/1/28 43/1/26 161/1/26
f 163/1/28 44/1/28 43/1/26
f 206/1/36 228/1/37 76/1/37
f 206/1/36 76/1/37 65/1/36
f 69/1/38 68/1/38 67/1/38
f 67/1/38 66/1/38 65/1/38
f 65/1/38 76/1/38 75/1/38
f 75/1/38 74/1/38 73/1/38
f 73/1/38 72/1/38 71/1/38
f 71/1/38 70/1/38 69/1/38
f 69/1/38 67/1/38 65/1/38
f 65/1/38 75/1/38 73/1/38
f 73/1/38 71/1/38 69/1/38
f 65/1/38 73/1/38 69/1/38
f 210/1/39 208/1/34 66/1/34
f 210/1/39 66/1/34 67/1/39
f 262/2/40 229/3/41 242/4/42
f 262/2/40 239/5/43 229/3/41
f 221/1/44 219/1/45 72/1/45
f 221/1/44 72/1/45 73/1/44
f 213/1/46 211/1/47 68/1/47
f 213/1/46 68/1/47 69/1/46
f 250/6/48 257/7/49 254/8/50
f 250/6/48 247/9/51 257/7/49
f 215/1/52 213/1/46 69/1/46
f 215/1/52 69/1/46 70/1/52
f 223/1/53 221/1/44 73/1/44
f 223/1/53 73/1/44 74/1/53
f 211/1/54 210/1/39 67/1/39
f 211/1/54 67/1/39 68/1/54
f 242/4/55 259/10/56 262/2/57
f 242/4/55 245/11/58 259/10/56
f 226/1/59 223/1/60 74/1/60
f 226/1/59 74/1/60 75/1/59
f 217/1/61 215/1/52 70/1/52
f 217/1/61 70/1/52 71/1/61
f 228/1/37 226/1/59 75/1/59
f 228/1/37 75/1/59 76/1/37
f 209/1/13 212/1/13 214/1/13
f 214/1/13 216/1/13 218/1/13
f 218/1/13 220/1/13 222/1/13
f 222/1/13 224/1/13 225/1/13
f 225/1/13 227/1/13 205/1/13
f 205/1/13 207/1/13 209/1/13
f 209/1/13 214/1/13 218/1/13
f 218/1/13 222/1/13 225/1/13
f 225/1/13 205/1/13 209/1/13
f 218/1/13 225/1/13 209/1/13
f 256/12/62 238/13/63 263/14/64
f 256/12/62 236/15/65 238/13/63
f 219/1/45 217/1/66 71/1/66
f 219/1/45 71/1/66 72/1/45
f 247/9/67 235/16/68 257/7/69
f 247/9/67 233/17/70 235/16/68
f 80/1/71 78/1/72 77/1/72
f 80/1/71 79/1/71 78/1/72
f 82/1/73 79/1/71 80/1/71
f 82/1/73 81/1/73 79/1/71
f 84/1/74 81/1/73 82/1/73
f 84/1/74 83/1/74 81/1/73
f 86/1/75 83/1/74 84/1/74
f 86/1/75 85/1/75 83/1/74
f 88/1/76 85/1/75 86/1/75
f 88/1/76 87/1/76 85/1/75
f 90/1/77 87/1/76 88/1/76
f 90/1/77 89/1/77 87/1/76
f 92/1/78 89/1/77 90/1/77
f 92/1/78 91/1/78 89/1/77
f 94/1/79 91/1/78 92/1/78
f 94/1/79 93/1/79 91/1/78
f 96/1/80 93/1/79 94/1/79
f 96/1/80 95/1/80 93/1/79
f 98/1/81 95/1/80 96/1/80
f 98/1/81 97/1/81 95/1/80
f 100/1/82 97/1/81 98/1/81
f 100/1/82 99/1/82 97/1/81
f 102/1/83 99/1/82 100/1/82
f 102/1/83 101/1/83 99/1/82
f 104/1/84 101/1/83 102/1/83
f 104/1/84 103/1/84 101/1/83
f 106/1/85 103/1/84 104/1/84
f 106/1/85 105/1/85 103/1/84
f 108/1/86 105/1/85 106/1/85
f 108/1/86 107/1/86 105/1/85
f 110/1/87 107/1/86 108/1/86
f 110/1/87 109/1/87 107/1/86
f 112/1/88 109/1/87 110/1/87
f 112/1/88 111/1/88 109/1/87
f 114/1/89 111/1/88 112/1/88
f 114/1/89 113/1/89 111/1/88
f 116/1/90 113/1/89 114/1/89
f 116/1/90 115/1/90 113/1/89
f 118/1/91 115/1/90 116/1/90
f 118/1/91 117/1/91 115/1/90
f 120/1/92 117/1/91 118/1/91
f 120/1/92 119/1/92 117/1/91
f 122/1/93 119/1/92 120/1/92
f 122/1/93 121/1/93 119/1/92
f 124/1/94 121/1/93 122/1/93
f 124/1/94 123/1/94 121/1/93
f 126/1/95 123/1/94 124/1/94
f 126/1/95 125/1/95 123/1/94
f 128/1/96 125/1/95 126/1/95
f 128/1/96 127/1/96 125/1/95
f 130/1/97 127/1/96 128/1/96
f 130/1/97 129/1/97 127/1/96
f 132/1/98 129/1/97 130/1/97
f 132/1/98 131/1/98 129/1/97
f 134/1/99 131/1/98 132/1/98
f 134/1/99 133/1/99 131/1/98
f 136/1/100 133/1/99 134/1/99
f 136/1/100 135/1/100 133/1/99
f 138/1/101 135/1/100 136/1/100
f 138/1/101 137/1/101 135/1/100
f 140/1/102 137/1/101 138/1/101
f 140/1/102 139/1/102 137/1/101
f 77/1/72 139/1/102 140/1/102
f 77/1/72 78/1/72 139/1/102
f 144/1/88 142/1/87 141/1/87
f 144/1/88 143/1/88 142/1/87
f 146/1/89 143/1/88 144/1/88
f 146/1/89 145/1/89 143/1/88
f 148/1/90 145/1/89 146/1/89
f 148/1/90 147/1/90 145/1/89
f 150/1/91 147/1/90 148/1/90
f 150/1/91 149/1/91 147/1/90
f 152/1/92 149/1/91 150/1/91
f 152/1/92 151/1/92 149/1/91
f 154/1/93 151/1/92 152/1/92
f 154/1/93 153/1/93 151/1/92
f 156/1/94 153/1/93 154/1/93
f 156/1/94 155/1/94 153/1/93
f 158/1/95 155/1/94 156/1/94
f 158/1/95 157/1/95 155/1/94
f 160/1/96 157/1/95 158/1/95
f 160/1/96 159/1/96 157/1/95
f 162/1/97 159/1/96 160/1/96
f 162/1/97 161/1/97 159/1/96
f 164/1/98 161/1/97 162/1/97
f 164/1/98 163/1/98 161/1/97
f 166/1/99 163/1/98 164/1/98
f 166/1/99 165/1/99 163/1/98
f 168/1/100 165/1/99 166/1/99
f 168/1/100 167/1/100 165/1/99
f 170/1/101 167/1/100 168/1/100
f 170/1/101 169/1/101 167/1/100
f 172/1/102 169/1/101 170/1/101
f 172/1/102 171/1/102 169/1/101
f 174/1/72 171/1/102 172/1/102
f 174/1/72 173/1/72 171/1/102
f 176/1/71 173/1/72 174/1/72
f 176/1/71 175/1/71 173/1/72
f 178/1/73 175/1/71 176/1/71
f 178/1/73 177/1/73 175/1/71
f 180/1/74 177/1/73 178/1/73
f 180/1/74 179/1/74 177/1/73
f 182/1/75 179/1/74 180/1/74
f 182/1/75 181/1/75 179/1/74
f 184/1/76 181/1/75 182/1/75
f 184/1/76 183/1/76 181/1/75
f 186/1/77 183/1/76 184/1/76
f 186/1/77 185/1/77 183/1/76
f 188/1/78 185/1/77 186/1/77
f 188/1/78 187/1/78 185/1/77
f 190/1/79 187/1/78 188/1/78
f 190/1/79 189/1/79 187/1/78
f 192/1/80 189/1/79 190/1/79
f 192/1/80 191/1/80 189/1/79
f 194/1/81 191/1/80 192/1/80
f 194/1/81 193/1/81 191/1/80
f 196/1/82 193/1/81 194/1/81
f 196/1/82 195/1/82 193/1/81
f 198/1/83 195/1/82 196/1/82
f 198/1/83 197/1/83 195/1/82
f 200/1/84 197/1/83 198/1/83
f 200/1/84 199/1/84 197/1/83
f 202/1/85 199/1/84 200/1/84
f 202/1/85 201/1/85 199/1/84
f 204/1/86 201/1/85 202/1/85
f 204/1/86 203/1/86 201/1/85
f 141/1/87 203/1/86 204/1/86
f 141/1/87 142/1/87 203/1/86
f 253/18/103 263/14/104 260/19/105
f 253/18/103 256/12/106 263/14/104
f 251/20/13 246/21/13 244/22/13
f 251/20/13 252/23/13 246/21/13
f 244/22/107 248/24/108 251/20/109
f 244/22/107 241/25/110 248/24/108
f 210/1/111 211/1/112 212/1/112
f 210/1/111 212/1/112 209/1/111
f 211/1/112 213/1/113 214/1/113
f 211/1/112 214/1/113 212/1/112
f 208/1/114 210/1/111 209/1/111
f 208/1/114 209/1/111 207/1/114
f 213/1/113 215/1/115 216/1/115
f 213/1/113 216/1/115 214/1/113
f 206/1/116 208/1/114 207/1/114
f 206/1/116 207/1/114 205/1/116
f 215/1/115 217/1/117 218/1/117
f 215/1/115 218/1/117 216/1/115
f 228/1/118 206/1/116 205/1/116
f 228/1/118 205/1/116 227/1/118
f 217/1/117 219/1/119 220/1/119
f 217/1/117 220/1/119 218/1/117
f 226/1/120 228/1/118 227/1/118
f 226/1/120 227/1/118 225/1/120
f 219/1/119 221/1/121 222/1/121
f 219/1/119 222/1/121 220/1/119
f 221/1/121 223/1/122 224/1/122
f 221/1/121 224/1/122 222/1/121
f 223/1/122 226/1/120 225/1/120
f 223/1/122 225/1/120 224/1/122
f 77/1/32 2/1/33 80/1/33
f 77/1/32 1/1/32 2/1/33
f 248/24/108 252/23/123 251/20/109
f 248/24/108 249/26/123 252/23/123
f 249/26/123 250/6/48 252/23/123
f 249/26/123 247/9/51 250/6/48
f 253/18/103 258/27/124 256/12/106
f 253/18/103 255/28/124 258/27/124
f 255/28/124 257/7/49 258/27/124
f 255/28/124 254/8/50 257/7/49
f 242/4/55 246/21/125 245/11/58
f 242/4/55 243/29/125 246/21/125
f 243/29/125 244/22/107 246/21/125
f 243/29/125 241/25/110 244/22/107
f 259/10/56 264/30/126 262/2/57
f 259/10/56 261/31/126 264/30/126
f 261/31/126 263/14/104 264/30/126
f 261/31/126 260/19/105 263/14/104
f 238/13/63 264/30/127 263/14/64
f 238/13/63 240/32/9 264/30/127
f 240/32/18 262/2/40 264/30/128
f 240/32/18 239/5/43 262/2/40
f 241/25/129 231/33/4 230/34/130
f 241/25/129 243/29/131 231/33/4
f 243/29/132 229/3/41 231/33/26
f 243/29/132 242/4/42 229/3/41
f 247/9/67 234/35/12 233/17/70
f 247/9/67 249/26/133 234/35/12
f 249/26/134 232/36/135 234/35/1
f 249/26/134 248/24/136 232/36/135
f 256/12/62 237/37/29 236/15/65
f 256/12/62 258/27/137 237/37/29
f 258/27/138 235/16/68 237/37/21
f 258/27/138 257/7/69 235/16/68
f 241/25/129 232/36/135 248/24/136
f 241/25/129 230/34/130 232/36/135
f 252/23/13 245/11/13 246/21/13
f 252/23/13 250/6/13 245/11/13
f 245/11/13 254/8/13 259/10/13
f 245/11/13 250/6/13 254/8/13
f 254/8/13 261/31/13 259/10/13
f 254/8/13 255/28/13 261/31/13
f 255/28/13 260/19/13 261/31/13
f 255/28/13 253/18/13 260/19/13
f 270/1/1 272/1/2 4/1/2
f 270/1/1 4/1/2 3/1/1
f 324/1/3 326/1/4 31/1/4
f 324/1/3 31/1/4 30/1/3
f 298/1/5 300/1/6 18/1/6
f 298/1/5 18/1/6 17/1/5
f 272/1/2 274/1/7 5/1/7
f 272/1/2 5/1/7 4/1/2
f 326/1/4 328/1/8 32/1/8
f 326/1/4 32/1/8 31/1/4
f 300/1/6 302/1/9 19/1/9
f 300/1/6 19/1/9 18/1/6
f 274/1/7 276/1/10 6/1/10
f 274/1/7 6/1/10 5/1/7
f 331/1/6 330/1/5 33/1/5
f 331/1/6 33/1/5 34/1/6
f 302/1/9 304/1/11 20/1/11
f 302/1/9 20/1/11 19/1/9
f 276/1/10 278/1/12 7/1/12
f 276/1/10 7/1/12 6/1/10
f 267/1/38 266/1/38 329/1/38
f 267/1/38 329/1/38 332/1/38
f 304/1/11 306/1/14 21/1/14
f 304/1/11 21/1/14 20/1/11
f 278/1/12 280/1/15 8/1/15
f 278/1/12 8/1/15 7/1/12
f 306/1/14 308/1/16 22/1/16
f 306/1/14 22/1/16 21/1/14
f 280/1/15 282/1/17 9/1/17
f 280/1/15 9/1/17 8/1/15
f 308/1/16 310/1/18 23/1/18
f 308/1/16 23/1/18 22/1/16
f 282/1/17 284/1/19 10/1/19
f 282/1/17 10/1/19 9/1/17
f 310/1/18 312/1/20 24/1/20
f 310/1/18 24/1/20 23/1/18
f 284/1/19 286/1/21 11/1/21
f 284/1/19 11/1/21 10/1/19
f 312/1/20 314/1/22 25/1/22
f 312/1/20 25/1/22 24/1/20
f 286/1/21 288/1/23 12/1/23
f 286/1/21 12/1/23 11/1/21
f 314/1/22 316/1/24 26/1/24
f 314/1/22 26/1/24 25/1/22
f 288/1/23 290/1/25 13/1/25
f 288/1/23 13/1/25 12/1/23
f 316/1/24 318/1/26 27/1/26
f 316/1/24 27/1/26 26/1/24
f 290/1/25 292/1/27 14/1/27
f 290/1/25 14/1/27 13/1/25
f 318/1/26 320/1/28 28/1/28
f 318/1/26 28/1/28 27/1/26
f 292/1/27 294/1/29 15/1/29
f 292/1/27 15/1/29 14/1/27
f 320/1/28 322/1/30 29/1/30
f 320/1/28 29/1/30 28/1/28
f 294/1/29 296/1/31 16/1/31
f 294/1/29 16/1/31 15/1/29
f 328/1/8 265/1/32 1/1/32
f 328/1/8 1/1/32 32/1/8
f 322/1/30 324/1/3 30/1/3
f 322/1/30 30/1/3 29/1/30
f 296/1/31 298/1/5 17/1/5
f 296/1/31 17/1/5 16/1/31
f 269/1/38 267/1/38 332/1/38
f 269/1/38 332/1/38 334/1/38
f 323/1/38 321/1/38 386/1/38
f 323/1/38 386/1/38 388/1/38
f 297/1/38 295/1/38 360/1/38
f 297/1/38 360/1/38 362/1/38
f 271/1/38 269/1/38 334/1/38
f 271/1/38 334/1/38 336/1/38
f 325/1/38 323/1/38 388/1/38
f 325/1/38 388/1/38 390/1/38
f 299/1/38 297/1/38 362/1/38
f 299/1/38 362/1/38 364/1/38
f 273/1/38 271/1/38 336/1/38
f 273/1/38 336/1/38 338/1/38
f 327/1/38 325/1/38 390/1/38
f 327/1/38 390/1/38 392/1/38
f 301/1/38 299/1/38 364/1/38
f 301/1/38 364/1/38 366/1/38
f 275/1/38 273/1/38 338/1/38
f 275/1/38 338/1/38 340/1/38
f 268/1/33 270/1/1 3/1/1
f 268/1/33 3/1/1 2/1/33
f 303/1/38 301/1/38 366/1/38
f 303/1/38 366/1/38 368/1/38
f 277/1/38 275/1/38 340/1/38
f 277/1/38 340/1/38 342/1/38
f 305/1/38 303/1/38 368/1/38
f 305/1/38 368/1/38 370/1/38
f 279/1/38 277/1/38 342/1/38
f 279/1/38 342/1/38 344/1/38
f 307/1/38 305/1/38 370/1/38
f 307/1/38 370/1/38 372/1/38
f 281/1/38 279/1/38 344/1/38
f 281/1/38 344/1/38 346/1/38
f 309/1/38 307/1/38 372/1/38
f 309/1/38 372/1/38 374/1/38
f 283/1/38 281/1/38 346/1/38
f 283/1/38 346/1/38 348/1/38
f 311/1/38 309/1/38 374/1/38
f 311/1/38 374/1/38 376/1/38
f 285/1/38 283/1/38 348/1/38
f 285/1/38 348/1/38 350/1/38
f 313/1/38 311/1/38 376/1/38
f 313/1/38 376/1/38 378/1/38
f 287/1/38 285/1/38 350/1/38
f 287/1/38 350/1/38 352/1/38
f 315/1/38 313/1/38 378/1/38
f 315/1/38 378/1/38 380/1/38
f 289/1/38 287/1/38 352/1/38
f 289/1/38 352/1/38 354/1/38
f 317/1/38 315/1/38 380/1/38
f 317/1/38 380/1/38 382/1/38
f 291/1/38 289/1/38 354/1/38
f 291/1/38 354/1/38 356/1/38
f 319/1/38 317/1/38 382/1/38
f 319/1/38 382/1/38 384/1/38
f 293/1/38 291/1/38 356/1/38
f 293/1/38 356/1/38 358/1/38
f 266/1/38 327/1/38 392/1/38
f 266/1/38 392/1/38 329/1/38
f 321/1/38 319/1/38 384/1/38
f 321/1/38 384/1/38 386/1/38
f 295/1/38 293/1/38 358/1/38
f 295/1/38 358/1/38 360/1/38
f 379/1/19 377/1/17 57/1/17
f 379/1/19 57/1/17 58/1/19
f 353/1/30 351/1/28 44/1/28
f 353/1/30 44/1/28 45/1/30
f 381/1/21 379/1/19 58/1/19
f 381/1/21 58/1/19 59/1/21
f 355/1/3 353/1/30 45/1/30
f 355/1/3 45/1/30 46/1/3
f 383/1/23 381/1/21 59/1/21
f 383/1/23 59/1/21 60/1/23
f 357/1/4 355/1/3 46/1/3
f 357/1/4 46/1/3 47/1/4
f 385/1/25 383/1/23 60/1/23
f 385/1/25 60/1/23 61/1/25
f 359/1/8 357/1/4 47/1/4
f 359/1/8 47/1/4 48/1/8
f 330/1/5 391/1/31 64/1/31
f 330/1/5 64/1/31 33/1/5
f 387/1/27 385/1/25 61/1/25
f 387/1/27 61/1/25 62/1/27
f 361/1/32 359/1/8 48/1/8
f 361/1/32 48/1/8 49/1/32
f 335/1/11 333/1/9 35/1/9
f 335/1/11 35/1/9 36/1/11
f 389/1/29 387/1/27 62/1/27
f 389/1/29 62/1/27 63/1/29
f 363/1/33 361/1/32 49/1/32
f 363/1/33 49/1/32 50/1/33
f 337/1/14 335/1/11 36/1/11
f 337/1/14 36/1/11 37/1/14
f 391/1/31 389/1/29 63/1/29
f 391/1/31 63/1/29 64/1/31
f 365/1/1 363/1/33 50/1/33
f 365/1/1 50/1/33 51/1/1
f 339/1/16 337/1/14 37/1/14
f 339/1/16 37/1/14 38/1/16
f 396/1/34 65/1/35 394/1/35
f 396/1/34 66/1/34 65/1/35
f 367/1/2 365/1/1 51/1/1
f 367/1/2 51/1/1 52/1/2
f 341/1/18 339/1/16 38/1/16
f 341/1/18 38/1/16 39/1/18
f 333/1/9 331/1/6 34/1/6
f 333/1/9 34/1/6 35/1/9
f 369/1/7 367/1/2 52/1/2
f 369/1/7 52/1/2 53/1/7
f 343/1/20 341/1/18 39/1/18
f 343/1/20 39/1/18 40/1/20
f 371/1/10 369/1/7 53/1/7
f 371/1/10 53/1/7 54/1/10
f 345/1/22 343/1/20 40/1/20
f 345/1/22 40/1/20 41/1/22
f 373/1/12 371/1/10 54/1/10
f 373/1/12 54/1/10 55/1/12
f 347/1/24 345/1/22 41/1/22
f 347/1/24 41/1/22 42/1/24
f 375/1/15 373/1/12 55/1/12
f 375/1/15 55/1/12 56/1/15
f 349/1/26 347/1/24 42/1/24
f 349/1/26 42/1/24 43/1/26
f 377/1/17 375/1/15 56/1/15
f 377/1/17 56/1/15 57/1/17
f 351/1/28 349/1/26 43/1/26
f 351/1/28 43/1/26 44/1/28
f 394/1/36 76/1/37 416/1/37
f 394/1/36 65/1/36 76/1/37
f 398/1/39 66/1/34 396/1/34
f 398/1/39 67/1/39 66/1/34
f 438/2/139 418/4/140 229/3/41
f 438/2/139 229/3/41 239/5/43
f 409/1/44 72/1/45 407/1/45
f 409/1/44 73/1/44 72/1/45
f 401/1/46 68/1/47 399/1/47
f 401/1/46 69/1/46 68/1/47
f 426/6/141 430/8/142 433/7/143
f 426/6/141 433/7/143 423/9/144
f 403/1/52 69/1/46 401/1/46
f 403/1/52 70/1/52 69/1/46
f 411/1/53 73/1/44 409/1/44
f 411/1/53 74/1/53 73/1/44
f 399/1/54 67/1/39 398/1/39
f 399/1/54 68/1/54 67/1/39
f 418/4/145 438/2/146 435/10/147
f 418/4/145 435/10/147 421/11/148
f 414/1/59 74/1/60 411/1/60
f 414/1/59 75/1/59 74/1/60
f 405/1/61 70/1/52 403/1/52
f 405/1/61 71/1/61 70/1/52
f 416/1/37 75/1/59 414/1/59
f 416/1/37 76/1/37 75/1/59
f 397/1/38 402/1/38 400/1/38
f 402/1/38 406/1/38 404/1/38
f 406/1/38 410/1/38 408/1/38
f 410/1/38 413/1/38 412/1/38
f 413/1/38 393/1/38 415/1/38
f 393/1/38 397/1/38 395/1/38
f 397/1/38 406/1/38 402/1/38
f 406/1/38 413/1/38 410/1/38
f 413/1/38 397/1/38 393/1/38
f 406/1/38 397/1/38 413/1/38
f 432/12/149 439/14/150 238/13/63
f 432/12/149 238/13/63 236/15/65
f 407/1/45 71/1/66 405/1/66
f 407/1/45 72/1/45 71/1/66
f 423/9/151 433/7/152 235/16/68
f 423/9/151 235/16/68 233/17/70
f 268/1/153 265/1/154 266/1/154
f 268/1/153 266/1/154 267/1/153
f 270/1/155 268/1/153 267/1/153
f 270/1/155 267/1/153 269/1/155
f 272/1/156 270/1/155 269/1/155
f 272/1/156 269/1/155 271/1/156
f 274/1/157 272/1/156 271/1/156
f 274/1/157 271/1/156 273/1/157
f 276/1/158 274/1/157 273/1/157
f 276/1/158 273/1/157 275/1/158
f 278/1/159 276/1/158 275/1/158
f 278/1/159 275/1/158 277/1/159
f 280/1/160 278/1/159 277/1/159
f 280/1/160 277/1/159 279/1/160
f 282/1/161 280/1/160 279/1/160
f 282/1/161 279/1/160 281/1/161
f 284/1/162 282/1/161 281/1/161
f 284/1/162 281/1/161 283/1/162
f 286/1/163 284/1/162 283/1/162
f 286/1/163 283/1/162 285/1/163
f 288/1/164 286/1/163 285/1/163
f 288/1/164 285/1/163 287/1/164
f 290/1/165 288/1/164 287/1/164
f 290/1/165 287/1/164 289/1/165
f 292/1/166 290/1/165 289/1/165
f 292/1/166 289/1/165 291/1/166
f 294/1/167 292/1/166 291/1/166
f 294/1/167 291/1/166 293/1/167
f 296/1/168 294/1/167 293/1/167
f 296/1/168 293/1/167 295/1/168
f 298/1/169 296/1/168 295/1/168
f 298/1/169 295/1/168 297/1/169
f 300/1/170 298/1/169 297/1/169
f 300/1/170 297/1/169 299/1/170
f 302/1/171 300/1/170 299/1/170
f 302/1/171 299/1/170 301/1/171
f 304/1/172 302/1/171 301/1/171
f 304/1/172 301/1/171 303/1/172
f 306/1/173 304/1/172 303/1/172
f 306/1/173 303/1/172 305/1/173
f 308/1/174 306/1/173 305/1/173
f 308/1/174 305/1/173 307/1/174
f 310/1/175 308/1/174 307/1/174
f 310/1/175 307/1/174 309/1/175
f 312/1/176 310/1/175 309/1/175
f 312/1/176 309/1/175 311/1/176
f 314/1/177 312/1/176 311/1/176
f 314/1/177 311/1/176 313/1/177
f 316/1/178 314/1/177 313/1/177
f 316/1/178 313/1/177 315/1/178
f 318/1/179 316/1/178 315/1/178
f 318/1/179 315/1/178 317/1/179
f 320/1/180 318/1/179 317/1/179
f 320/1/180 317/1/179 319/1/180
f 322/1/181 320/1/180 319/1/180
f 322/1/181 319/1/180 321/1/181
f 324/1/182 322/1/181 321/1/181
f 324/1/182 321/1/181 323/1/182
f 326/1/183 324/1/182 323/1/182
f 326/1/183 323/1/182 325/1/183
f 328/1/184 326/1/183 325/1/183
f 328/1/184 325/1/183 327/1/184
f 265/1/154 328/1/184 327/1/184
f 265/1/154 327/1/184 266/1/154
f 332/1/170 329/1/169 330/1/169
f 332/1/170 330/1/169 331/1/170
f 334/1/171 332/1/170 331/1/170
f 334/1/171 331/1/170 333/1/171
f 336/1/172 334/1/171 333/1/171
f 336/1/172 333/1/171 335/1/172
f 338/1/173 336/1/172 335/1/172
f 338/1/173 335/1/172 337/1/173
f 340/1/174 338/1/173 337/1/173
f 340/1/174 337/1/173 339/1/174
f 342/1/175 340/1/174 339/1/174
f 342/1/175 339/1/174 341/1/175
f 344/1/176 342/1/175 341/1/175
f 344/1/176 341/1/175 343/1/176
f 346/1/177 344/1/176 343/1/176
f 346/1/177 343/1/176 345/1/177
f 348/1/178 346/1/177 345/1/177
f 348/1/178 345/1/177 347/1/178
f 350/1/179 348/1/178 347/1/178
f 350/1/179 347/1/178 349/1/179
f 352/1/180 350/1/179 349/1/179
f 352/1/180 349/1/179 351/1/180
f 354/1/181 352/1/180 351/1/180
f 354/1/181 351/1/180 353/1/181
f 356/1/182 354/1/181 353/1/181
f 356/1/182 353/1/181 355/1/182
f 358/1/183 356/1/182 355/1/182
f 358/1/183 355/1/182 357/1/183
f 360/1/184 358/1/183 357/1/183
f 360/1/184 357/1/183 359/1/184
f 362/1/154 360/1/184 359/1/184
f 362/1/154 359/1/184 361/1/154
f 364/1/153 362/1/154 361/1/154
f 364/1/153 361/1/154 363/1/153
f 366/1/155 364/1/153 363/1/153
f 366/1/155 363/1/153 365/1/155
f 368/1/156 366/1/155 365/1/155
f 368/1/156 365/1/155 367/1/156
f 370/1/157 368/1/156 367/1/156
f 370/1/157 367/1/156 369/1/157
f 372/1/158 370/1/157 369/1/157
f 372/1/158 369/1/157 371/1/158
f 374/1/159 372/1/158 371/1/158
f 374/1/159 371/1/158 373/1/159
f 376/1/160 374/1/159 373/1/159
f 376/1/160 373/1/159 375/1/160
f 378/1/161 376/1/160 375/1/160
f 378/1/161 375/1/160 377/1/161
f 380/1/162 378/1/161 377/1/161
f 380/1/162 377/1/161 379/1/162
f 382/1/163 380/1/162 379/1/162
f 382/1/163 379/1/162 381/1/163
f 384/1/164 382/1/163 381/1/163
f 384/1/164 381/1/163 383/1/164
f 386/1/165 384/1/164 383/1/164
f 386/1/165 383/1/164 385/1/165
f 388/1/166 386/1/165 385/1/165
f 388/1/166 385/1/165 387/1/166
f 390/1/167 388/1/166 387/1/166
f 390/1/167 387/1/166 389/1/167
f 392/1/168 390/1/167 389/1/167
f 392/1/168 389/1/167 391/1/168
f 329/1/169 392/1/168 391/1/168
f 329/1/169 391/1/168 330/1/169
f 429/18/185 436/19/186 439/14/187
f 429/18/185 439/14/187 432/12/188
f 427/20/38 420/22/38 422/21/38
f 427/20/38 422/21/38 428/23/38
f 420/22/189 427/20/190 424/24/191
f 420/22/189 424/24/191 417/25/192
f 398/1/193 400/1/194 399/1/194
f 398/1/193 397/1/193 400/1/194
f 399/1/194 402/1/195 401/1/195
f 399/1/194 400/1/194 402/1/195
f 396/1/196 397/1/193 398/1/193
f 396/1/196 395/1/196 397/1/193
f 401/1/195 404/1/197 403/1/197
f 401/1/195 402/1/195 404/1/197
f 394/1/198 395/1/196 396/1/196
f 394/1/198 393/1/198 395/1/196
f 403/1/197 406/1/199 405/1/199
f 403/1/197 404/1/197 406/1/199
f 416/1/200 393/1/198 394/1/198
f 416/1/200 415/1/200 393/1/198
f 405/1/199 408/1/201 407/1/201
f 405/1/199 406/1/199 408/1/201
f 414/1/202 415/1/200 416/1/200
f 414/1/202 413/1/202 415/1/200
f 407/1/201 410/1/203 409/1/203
f 407/1/201 408/1/201 410/1/203
f 409/1/203 412/1/204 411/1/204
f 409/1/203 410/1/203 412/1/204
f 411/1/204 413/1/202 414/1/202
f 411/1/204 412/1/204 413/1/202
f 265/1/32 268/1/33 2/1/33
f 265/1/32 2/1/33 1/1/32
f 424/24/191 427/20/190 428/23/205
f 424/24/191 428/23/205 425/26/205
f 425/26/205 428/23/205 426/6/141
f 425/26/205 426/6/141 423/9/144
f 429/18/185 432/12/188 434/27/206
f 429/18/185 434/27/206 431/28/206
f 431/28/206 434/27/206 433/7/143
f 431/28/206 433/7/143 430/8/142
f 418/4/145 421/11/148 422/21/207
f 418/4/145 422/21/207 419/29/207
f 419/29/207 422/21/207 420/22/189
f 419/29/207 420/22/189 417/25/192
f 435/10/147 438/2/146 440/30/208
f 435/10/147 440/30/208 437/31/208
f 437/31/208 440/30/208 439/14/187
f 437/31/208 439/14/187 436/19/186
f 238/13/63 439/14/150 440/30/209
f 238/13/63 440/30/209 240/32/9
f 240/32/18 440/30/210 438/2/139
f 240/32/18 438/2/139 239/5/43
f 417/25/211 230/34/130 231/33/4
f 417/25/211 231/33/4 419/29/212
f 419/29/213 231/33/26 229/3/41
f 419/29/213 229/3/41 418/4/140
f 423/9/151 233/17/70 234/35/12
f 423/9/151 234/35/12 425/26/214
f 425/26/215 234/35/1 232/36/135
f 425/26/215 232/36/135 424/24/216
f 432/12/149 236/15/65 237/37/29
f 432/12/149 237/37/29 434/27/217
f 434/27/218 237/37/21 235/16/68
f 434/27/218 235/16/68 433/7/152
f 417/25/211 424/24/216 232/36/135
f 417/25/211 232/36/135 230/34/130
f 428/23/38 422/21/38 421/11/38
f 428/23/38 421/11/38 426/6/38
f 421/11/38 435/10/38 430/8/38
f 421/11/38 430/8/38 426/6/38
f 430/8/38 435/10/38 437/31/38
f 430/8/38 437/31/38 431/28/38
f 431/28/38 437/31/38 436/19/38
f 431/28/38 436/19/38 429/18/38
